<svg width="1280" height="1278" xmlns="http://www.w3.org/2000/svg" preserveAspectRatio="xMidYMid meet">
 <metadata>Created by potrace 1.15, written by Peter Selinger 2001-2017</metadata>

 <g>
  <title>background</title>
  <rect fill="none" id="canvas_background" height="1280" width="1282" y="-1" x="-1"/>
 </g>
 <g>
  <title>Layer 1</title>
  <g id="svg_1" fill="#000000" transform="translate(0,1278) scale(0.10000000149011612,-0.10000000149011612) ">
   <path stroke="#619E73" fill="#619E73" id="svg_2" d="m6165,12774c-335,-11 -606,-36 -872,-79c-1435,-233 -2811,-1036 -3779,-2205c-235,-285 -466,-606 -624,-870c-496,-825 -782,-1736 -872,-2770c-19,-218 -16,-812 5,-1040c70,-754 225,-1351 532,-2051c412,-940 1087,-1790 1938,-2442c758,-581 1626,-990 2547,-1201c388,-89 655,-111 1320,-111c698,1 1163,50 1695,180c584,143 1252,430 1805,775c579,360 1154,884 1604,1459c762,973 1223,2155 1317,3371c17,216 17,908 1,1090c-63,701 -209,1317 -457,1929c-376,927 -934,1720 -1670,2371c-195,173 -235,206 -415,342c-931,702 -2016,1120 -3200,1233c-159,16 -658,26 -875,19zm-19,-194c88,-6 279,-15 425,-20c794,-28 1063,-49 1219,-96c188,-56 251,-166 188,-329c-25,-67 -41,-79 -128,-100c-162,-38 -322,-31 -670,30c-107,19 -229,39 -270,44c-41,6 -111,18 -155,26c-173,31 -355,19 -770,-52c-198,-33 -238,-37 -405,-38c-219,0 -293,13 -421,78c-98,49 -99,51 -44,163c118,242 432,332 1031,294zm-1392,-312c161,-162 183,-330 71,-551c-70,-137 -163,-256 -439,-555c-213,-232 -288,-327 -375,-479c-118,-206 -296,-367 -536,-483c-192,-93 -363,-146 -855,-265c-267,-65 -445,-120 -574,-177c-79,-36 -95,-40 -151,-36c-77,5 -127,36 -180,112c-73,106 -115,297 -95,436c12,84 14,90 93,200c240,336 595,666 1097,1016c197,138 292,199 395,254c55,30 177,99 270,153c358,209 509,288 678,351c158,59 318,91 471,95l58,1l72,-72zm3836,-60c252,-80 542,-206 793,-344c310,-171 673,-409 822,-539c39,-34 185,-153 325,-266c470,-376 644,-575 732,-834c51,-147 49,-365 -4,-548c-16,-55 -74,-112 -128,-127c-41,-12 -51,-10 -120,15c-41,15 -300,103 -575,195c-599,201 -790,279 -1022,416c-211,124 -421,305 -487,417c-58,99 -147,213 -346,442c-375,433 -473,598 -474,800c-1,81 2,97 30,155c40,83 98,148 193,216c88,62 72,62 261,2zm-1930,-264c118,-7 298,-19 400,-24c234,-14 298,-23 404,-59c196,-67 361,-177 557,-371c160,-159 230,-246 472,-584c226,-315 305,-420 388,-519c56,-65 68,-87 78,-134c44,-223 -36,-465 -249,-748c-89,-118 -194,-238 -410,-470c-224,-240 -282,-306 -356,-404c-59,-78 -59,-79 -114,-85c-30,-4 -629,-10 -1330,-15l-1275,-8l-80,40c-433,215 -802,651 -1168,1383l-86,172l53,114c229,499 655,1049 1120,1447c147,126 274,180 548,235c272,55 556,63 1048,30zm-3081,-2004c170,-47 308,-150 467,-349c107,-133 191,-265 389,-612c164,-286 238,-405 311,-501l44,-56l-74,-234c-173,-545 -478,-1415 -752,-2141c-77,-202 -254,-367 -504,-470c-136,-56 -264,-90 -681,-182c-202,-44 -344,-83 -444,-123c-101,-39 -148,-45 -211,-27c-168,49 -334,170 -490,357c-129,155 -216,296 -509,828c-59,107 -145,252 -191,322c-97,146 -94,133 -69,370c62,582 226,1116 530,1718c46,91 102,204 124,252c163,346 502,560 1128,713c514,125 654,154 758,154c72,1 121,-5 174,-19zm6089,-50c193,-39 325,-92 792,-320c366,-178 422,-203 565,-245c50,-14 96,-30 104,-34c23,-12 205,-316 300,-501c196,-383 341,-800 421,-1207c51,-260 51,-312 -5,-534c-71,-282 -201,-558 -478,-1014c-225,-369 -345,-573 -404,-682l-54,-102l-53,-6c-53,-7 -239,11 -266,25c-73,38 -355,116 -660,181c-490,106 -719,186 -926,326c-96,65 -241,295 -334,528c-67,168 -107,305 -214,730c-82,322 -161,565 -248,765c-68,153 -87,226 -95,352c-10,166 25,313 118,500c89,178 165,281 492,668c110,129 227,273 261,320c82,113 126,154 221,201c141,70 286,85 463,49zm-8161,-26c44,-33 71,-81 78,-139c24,-185 -133,-573 -363,-900c-167,-238 -253,-480 -337,-950c-99,-552 -140,-706 -244,-920c-59,-121 -149,-252 -212,-312c-19,-17 -61,-47 -94,-67l-60,-36l-37,37c-60,59 -81,119 -86,254c-6,151 10,245 103,628c41,168 79,342 84,386c11,88 137,487 247,783c189,507 416,905 684,1196l64,68l72,-4c54,-2 80,-9 101,-24zm10238,-264c96,-172 278,-538 348,-700c326,-757 488,-1409 527,-2125c11,-191 5,-475 -9,-475c-15,0 -153,135 -196,192c-165,219 -255,467 -385,1053c-52,236 -100,414 -146,542c-24,67 -44,126 -44,132c0,47 -106,294 -251,583c-291,581 -291,826 -2,943c32,13 61,21 65,17c3,-4 46,-77 93,-162zm-4200,-1219c215,-57 371,-182 467,-376c14,-27 37,-106 52,-174c44,-197 114,-433 275,-921c214,-650 272,-854 319,-1122l19,-108l-106,-98c-255,-237 -527,-460 -1141,-937c-239,-186 -511,-399 -605,-475c-201,-161 -222,-175 -304,-196c-72,-18 -135,-13 -221,19c-110,40 -195,98 -374,256c-417,370 -476,413 -904,677c-152,94 -317,199 -367,234c-259,183 -434,369 -535,570c-70,140 -70,118 14,356c41,115 124,351 185,524c170,488 277,789 351,980c43,113 69,198 74,239c22,194 121,365 261,450c177,107 398,130 985,100c421,-22 528,-21 790,5c319,32 638,31 765,-3zm4588,-1744c312,-401 479,-915 439,-1353c-19,-208 -30,-248 -175,-664c-207,-593 -283,-783 -427,-1075c-153,-308 -314,-556 -483,-737c-55,-60 -69,-70 -121,-83c-204,-51 -407,-14 -516,95c-23,23 -56,72 -73,108c-31,65 -32,72 -32,197c1,112 5,147 32,255c53,208 68,312 108,755c14,154 32,334 41,400c49,383 147,684 293,907c72,110 130,221 236,458c191,425 284,582 416,704c65,60 175,129 191,120c4,-3 36,-42 71,-87zm-11339,-116c75,-37 186,-135 265,-235c76,-96 176,-251 335,-521c81,-137 174,-286 207,-330c133,-179 213,-386 256,-659c14,-87 18,-169 17,-376c-1,-236 -5,-309 -42,-665c-22,-220 -44,-456 -48,-524l-7,-123l-61,-29c-185,-88 -378,-73 -550,42c-145,97 -289,276 -401,499c-72,144 -97,210 -159,422c-30,101 -100,316 -155,478c-219,646 -275,882 -287,1220c-7,190 8,336 52,499c26,97 29,102 93,168c125,130 216,175 341,171c62,-3 88,-9 144,-37zm8421,-1016c133,-22 254,-55 574,-160c288,-93 459,-138 581,-151c55,-6 75,-13 125,-49c236,-167 334,-445 296,-845c-17,-178 -27,-236 -131,-743c-49,-243 -70,-399 -70,-521c0,-71 -6,-115 -25,-181c-112,-385 -380,-691 -911,-1038c-171,-111 -732,-442 -814,-479c-193,-88 -546,-83 -916,12c-141,37 -270,78 -624,202c-157,55 -350,119 -430,143l-145,44l-66,69c-46,48 -80,95 -108,153c-106,217 -119,452 -56,1014c36,319 48,497 40,603l-6,93l64,77c84,99 296,306 417,406c103,86 362,280 560,421c389,277 588,437 821,662c135,129 168,156 247,196c49,26 126,56 169,66c97,24 281,27 408,6zm-5101,-82c908,-653 1297,-938 1601,-1171c99,-76 214,-157 255,-181c102,-60 233,-193 282,-286c54,-104 75,-163 98,-276c33,-163 39,-326 24,-729c-10,-255 -11,-408 -5,-506c17,-246 -12,-348 -131,-461c-89,-84 -244,-150 -451,-193c-54,-11 -207,-36 -340,-55c-360,-52 -544,-93 -647,-145c-35,-17 -141,-45 -295,-75c-44,-9 -142,-19 -217,-22c-233,-10 -335,17 -603,156c-209,108 -404,232 -608,385c-256,191 -412,330 -718,636l-277,276l-32,100c-95,297 -131,643 -111,1069c11,230 16,292 57,704l19,183l62,64c243,249 630,412 1223,515c107,18 638,95 679,98c8,1 69,-38 135,-86zm-2332,-2565c108,-51 212,-139 413,-347c99,-102 286,-292 415,-421c269,-270 328,-314 655,-490c432,-234 556,-312 681,-436c141,-139 223,-300 249,-491c6,-47 5,-53 -17,-67c-23,-15 -32,-14 -139,20c-511,162 -1037,453 -1529,848c-333,267 -736,673 -1049,1056l-110,135l32,58c37,68 119,148 168,165c60,20 151,8 231,-30zm9233,-319c84,-15 235,-87 235,-111c0,-22 -253,-303 -444,-493c-585,-584 -1189,-982 -1996,-1318c-80,-33 -181,-75 -225,-93c-44,-19 -97,-34 -117,-34c-36,0 -37,1 -49,54c-6,30 -10,93 -7,144c4,79 9,99 42,166c76,154 229,273 556,433c427,208 518,256 595,312c44,33 105,74 135,91c99,58 220,161 424,358c401,389 549,484 772,501c11,0 47,-4 79,-10zm-4525,-944c264,-12 502,-69 1085,-259c160,-51 329,-106 377,-120c48,-15 108,-38 133,-53c74,-41 151,-118 181,-180c22,-48 26,-66 22,-132c-2,-65 -9,-89 -41,-153c-111,-226 -454,-455 -781,-522c-92,-19 -254,-21 -322,-3c-41,11 -70,11 -160,0c-60,-6 -212,-17 -337,-23c-190,-10 -265,-9 -455,4c-125,9 -310,20 -412,26c-510,29 -818,92 -1064,216c-195,98 -298,185 -359,301c-90,173 -90,292 0,393c117,130 292,190 817,281c351,60 423,76 591,134c72,24 177,54 234,65c101,20 299,39 351,34c14,-2 77,-6 140,-9z"/>
   <polyline stroke-linecap="round" id="svg_3" points="164.6912496479646,308.6420306249606 164.6912496479646,309.8765987587633 164.6912496479646,311.1111668925659 168.3949540493726,312.3457350263686 177.03693098599112,314.81487129397385 194.32088485922824,316.0494394277765 223.95052007049188,320.98771196298713 243.70361021133428,325.92598449819775 254.81472341555812,329.6296888996057 260.98756408457143,330.8642570334083 268.3949728873873,335.802529568619 273.3332454225979,340.7408021038295 278.27151795780856,348.14821090664543 288.1480630282298,359.25932411086933 298.0246080986509,372.83957358269845 307.90115316907213,386.4198230545276 316.5431301056907,397.53093625875147 323.9505389085066,407.40748132917264 335.0616521127305,422.2222989348045 344.9381971831517,433.3334121390284 358.5184466549808,448.14822974466017 369.62955985920473,464.1976154840946 381.9752411972312,479.01243308972647 391.85178626765236,492.59268256155565 396.7900588028631,498.7655232305689 400.493763204271,503.7037957657795 401.72833133807364,504.93836389958216 404.1974676056789,507.40750016718744 407.90117200708687,508.64206830099016 416.54314894370543,509.8766364347927 432.5925346831399,508.64206830099016 436.2962390845479,507.40750016718744 " opacity="0.5" stroke-width="1.5" stroke="#CC7C65" fill="none"/>
  </g>
 </g>
</svg>